<?xml version="1.0" encoding="iso-8859-1"?>
<!-- Generator: Adobe Illustrator 19.0.0, SVG Export Plug-In . SVG Version: 6.00 Build 0)  -->
<svg version="1.1" id="Capa_1" xmlns="http://www.w3.org/2000/svg" xmlns:xlink="http://www.w3.org/1999/xlink" x="0px" y="0px"
	 viewBox="0 0 512 512" style="enable-background:new 0 0 512 512;" xml:space="preserve">
<path style="fill:#4CAF50;" d="M328.299,236.352c48.059-34.07,59.4-100.649,25.33-148.708c-19.988-28.196-52.4-44.959-86.962-44.978
	v-32C266.667,4.776,261.891,0,256,0c-5.891,0-10.667,4.776-10.667,10.667v32h-64v-32C181.333,4.776,176.558,0,170.667,0
	S160,4.776,160,10.667v32h-53.333C100.776,42.667,96,47.442,96,53.333v405.333c0,5.891,4.776,10.667,10.667,10.667H160v32
	c0,5.891,4.776,10.667,10.667,10.667s10.667-4.776,10.667-10.667v-32h64v32c0,5.891,4.776,10.667,10.667,10.667
	c5.891,0,10.667-4.776,10.667-10.667v-32h42.667C368.214,469.263,415.93,421.548,416,362.667v-21.333
	C415.93,289.761,379.035,245.598,328.299,236.352z M117.333,64h149.333C313.795,64,352,102.205,352,149.333
	s-38.205,85.333-85.333,85.333H117.333V64z M394.667,362.667c0,47.128-38.205,85.333-85.333,85.333h-192V256h192
	c47.128,0,85.333,38.205,85.333,85.333V362.667z"/>
<g>
</g>
<g>
</g>
<g>
</g>
<g>
</g>
<g>
</g>
<g>
</g>
<g>
</g>
<g>
</g>
<g>
</g>
<g>
</g>
<g>
</g>
<g>
</g>
<g>
</g>
<g>
</g>
<g>
</g>
</svg>
