<?xml version="1.0" encoding="iso-8859-1"?>
<!-- Generator: Adobe Illustrator 19.0.0, SVG Export Plug-In . SVG Version: 6.00 Build 0)  -->
<svg version="1.1" id="Capa_1" xmlns="http://www.w3.org/2000/svg" xmlns:xlink="http://www.w3.org/1999/xlink" x="0px" y="0px"
	 viewBox="0 0 426.667 426.667" style="enable-background:new 0 0 426.667 426.667;" xml:space="preserve">
<path style="fill:#4CAF50;" d="M373.333,405.333c-31.642-0.482-63.157-4.112-94.08-10.837
	c-54.795-14.104-112.448-12.544-166.4,4.501L147.2,295.893c6.482-19.717,8.665-40.595,6.4-61.227h177.067
	c5.891,0,10.667-4.776,10.667-10.667c0-5.891-4.776-10.667-10.667-10.667H149.909c-4.912-19.203-13.696-37.2-25.813-52.885
	C99.76,129.709,103.575,85.334,132.8,59.2c28.341-24.387,64.478-37.82,101.867-37.867c80.149,0,128,27.925,128,74.667
	c0,5.891,4.776,10.667,10.667,10.667S384,101.891,384,96c0-60.117-55.829-96-149.333-96c-42.554,0.069-83.677,15.371-115.925,43.136
	c-37.726,33.576-42.766,90.729-11.499,130.389c9.276,11.901,16.309,25.39,20.757,39.808H53.333c-5.891,0-10.667,4.776-10.667,10.667
	c0,5.891,4.776,10.667,10.667,10.667h78.933c2.322,18.321,0.522,36.928-5.269,54.464L85.824,412.629
	c-1.853,5.592,1.178,11.627,6.77,13.481c2.282,0.756,4.753,0.719,7.012-0.105c55.913-22.166,117.453-25.859,175.616-10.539
	c32.249,6.996,65.116,10.748,98.112,11.2c5.891,0,10.667-4.776,10.667-10.667C384,410.109,379.224,405.333,373.333,405.333z"/>
<g>
</g>
<g>
</g>
<g>
</g>
<g>
</g>
<g>
</g>
<g>
</g>
<g>
</g>
<g>
</g>
<g>
</g>
<g>
</g>
<g>
</g>
<g>
</g>
<g>
</g>
<g>
</g>
<g>
</g>
</svg>
