<?xml version="1.0" encoding="iso-8859-1"?>
<!-- Generator: Adobe Illustrator 19.0.0, SVG Export Plug-In . SVG Version: 6.00 Build 0)  -->
<svg version="1.1" id="Capa_1" xmlns="http://www.w3.org/2000/svg" xmlns:xlink="http://www.w3.org/1999/xlink" x="0px" y="0px"
	 viewBox="0 0 426.667 426.667" style="enable-background:new 0 0 426.667 426.667;" xml:space="preserve">
<g>
	<path style="fill:#4CAF50;" d="M234.667,426.667c-91.563,0-160-67.584-160-128V128c0-60.416,68.437-128,160-128
		c91.221,0,160,45.845,160,106.667c0,5.891-4.776,10.667-10.667,10.667c-5.891,0-10.667-4.776-10.667-10.667
		c0-47.851-60.907-85.333-138.667-85.333C156.565,21.333,96,78.677,96,128v170.667c0,49.344,60.565,106.667,138.667,106.667
		c77.76,0,138.667-37.483,138.667-85.333c0-5.891,4.776-10.667,10.667-10.667c5.891,0,10.667,4.776,10.667,10.667
		C394.667,380.821,325.888,426.667,234.667,426.667z"/>
	<path style="fill:#4CAF50;" d="M298.667,192h-256C36.776,192,32,187.224,32,181.333c0-5.891,4.776-10.667,10.667-10.667h256
		c5.891,0,10.667,4.776,10.667,10.667C309.333,187.224,304.558,192,298.667,192z"/>
	<path style="fill:#4CAF50;" d="M341.333,256H42.667C36.776,256,32,251.224,32,245.333c0-5.891,4.776-10.667,10.667-10.667h298.667
		c5.891,0,10.667,4.776,10.667,10.667C352,251.224,347.224,256,341.333,256z"/>
</g>
<g>
</g>
<g>
</g>
<g>
</g>
<g>
</g>
<g>
</g>
<g>
</g>
<g>
</g>
<g>
</g>
<g>
</g>
<g>
</g>
<g>
</g>
<g>
</g>
<g>
</g>
<g>
</g>
<g>
</g>
</svg>
