<?xml version="1.0" encoding="iso-8859-1"?>
<!-- Generator: Adobe Illustrator 19.0.0, SVG Export Plug-In . SVG Version: 6.00 Build 0)  -->
<svg version="1.1" id="Capa_1" xmlns="http://www.w3.org/2000/svg" xmlns:xlink="http://www.w3.org/1999/xlink" x="0px" y="0px"
	 viewBox="0 0 512 512" style="enable-background:new 0 0 512 512;" xml:space="preserve">
<g>
	<path style="fill:#4CAF50;" d="M256,469.333c-88.235,0-160-50.24-160-112c0-5.891,4.776-10.667,10.667-10.667
		c5.891,0,10.667,4.776,10.667,10.667C117.333,407.339,179.541,448,256,448s138.667-40.661,138.667-90.667
		S332.459,266.667,256,266.667c-88.235,0-160-50.24-160-112s71.765-112,160-112s160,50.24,160,112
		c0,5.891-4.776,10.667-10.667,10.667s-10.667-4.776-10.667-10.667C394.667,104.661,332.459,64,256,64
		s-138.667,40.661-138.667,90.667S179.541,245.333,256,245.333c88.235,0,160,50.24,160,112S344.235,469.333,256,469.333z"/>
	<path style="fill:#4CAF50;" d="M256,512c-5.891,0-10.667-4.776-10.667-10.667V10.667C245.333,4.776,250.109,0,256,0
		c5.891,0,10.667,4.776,10.667,10.667v490.667C266.667,507.224,261.891,512,256,512z"/>
</g>
<g>
</g>
<g>
</g>
<g>
</g>
<g>
</g>
<g>
</g>
<g>
</g>
<g>
</g>
<g>
</g>
<g>
</g>
<g>
</g>
<g>
</g>
<g>
</g>
<g>
</g>
<g>
</g>
<g>
</g>
</svg>
