<?xml version="1.0" encoding="iso-8859-1"?>
<!-- Generator: Adobe Illustrator 19.0.0, SVG Export Plug-In . SVG Version: 6.00 Build 0)  -->
<svg version="1.1" id="Capa_1" xmlns="http://www.w3.org/2000/svg" xmlns:xlink="http://www.w3.org/1999/xlink" x="0px" y="0px"
	 viewBox="0 0 512 512" style="enable-background:new 0 0 512 512;" xml:space="preserve">
<path style="fill:#CFD8DC;" d="M53.333,85.333h405.333c29.455,0,53.333,23.878,53.333,53.333v234.667
	c0,29.455-23.878,53.333-53.333,53.333H53.333C23.878,426.667,0,402.789,0,373.333V138.667C0,109.211,23.878,85.333,53.333,85.333z"
	/>
<g>
	<path style="fill:#607D8B;" d="M160,320H74.667C68.776,320,64,315.224,64,309.333s4.776-10.667,10.667-10.667H160
		c5.891,0,10.667,4.776,10.667,10.667S165.891,320,160,320z"/>
	<path style="fill:#607D8B;" d="M266.667,362.667h-192C68.776,362.667,64,357.891,64,352c0-5.891,4.776-10.667,10.667-10.667h192
		c5.891,0,10.667,4.776,10.667,10.667C277.333,357.891,272.558,362.667,266.667,362.667z"/>
</g>
<path style="fill:#FFC107;" d="M384,320c0.012-6.037,2.615-11.778,7.147-15.765c4.377-3.943,4.729-10.687,0.786-15.064
	c-0.248-0.276-0.511-0.538-0.786-0.786c-17.467-15.817-44.449-14.479-60.266,2.988c-15.817,17.467-14.479,44.449,2.988,60.266
	c16.256,14.72,41.023,14.72,57.278,0c4.377-3.943,4.729-10.687,0.786-15.064c-0.248-0.276-0.511-0.538-0.786-0.786
	C386.609,331.794,384.006,326.044,384,320z"/>
<g>
	<path style="fill:#607D8B;" d="M117.333,256H74.667C68.776,256,64,251.224,64,245.333c0-5.891,4.776-10.667,10.667-10.667h42.667
		c5.891,0,10.667,4.776,10.667,10.667C128,251.224,123.224,256,117.333,256z"/>
	<path style="fill:#607D8B;" d="M202.667,256H160c-5.891,0-10.667-4.776-10.667-10.667c0-5.891,4.776-10.667,10.667-10.667h42.667
		c5.891,0,10.667,4.776,10.667,10.667C213.333,251.224,208.558,256,202.667,256z"/>
	<path style="fill:#607D8B;" d="M288,256h-42.667c-5.891,0-10.667-4.776-10.667-10.667c0-5.891,4.776-10.667,10.667-10.667H288
		c5.891,0,10.667,4.776,10.667,10.667C298.667,251.224,293.891,256,288,256z"/>
</g>
<circle style="fill:#2196F3;" cx="405.333" cy="320" r="42.667"/>
<g>
</g>
<g>
</g>
<g>
</g>
<g>
</g>
<g>
</g>
<g>
</g>
<g>
</g>
<g>
</g>
<g>
</g>
<g>
</g>
<g>
</g>
<g>
</g>
<g>
</g>
<g>
</g>
<g>
</g>
</svg>
