<?xml version="1.0" encoding="iso-8859-1"?>
<!-- Generator: Adobe Illustrator 19.0.0, SVG Export Plug-In . SVG Version: 6.00 Build 0)  -->
<svg version="1.1" id="Capa_1" xmlns="http://www.w3.org/2000/svg" xmlns:xlink="http://www.w3.org/1999/xlink" x="0px" y="0px"
	 viewBox="0 0 490.667 490.667" style="enable-background:new 0 0 490.667 490.667;" xml:space="preserve">
<circle style="fill:#64B5F6;" cx="245.333" cy="245.333" r="234.667"/>
<g>
	<path style="fill:#1976D2;" d="M245.333,490.667C109.839,490.667,0,380.827,0,245.333S109.839,0,245.333,0
		s245.333,109.839,245.333,245.333C490.514,380.764,380.764,490.514,245.333,490.667z M245.333,21.333
		c-123.712,0-224,100.288-224,224s100.288,224,224,224s224-100.288,224-224C469.192,121.68,368.987,21.474,245.333,21.333z"/>
	<path style="fill:#1976D2;" d="M146.56,106.667c-1.472-0.01-2.926-0.33-4.267-0.939c-5.354-2.375-7.792-8.622-5.461-13.995
		C163.072,33.408,202.667,0,245.333,0C251.224,0,256,4.776,256,10.667s-4.776,10.667-10.667,10.667
		c-33.941,0-66.411,28.843-89.045,79.104C154.548,104.242,150.744,106.678,146.56,106.667z"/>
	<path style="fill:#1976D2;" d="M344.107,106.667c-4.206,0.008-8.025-2.457-9.749-6.293c-22.613-50.197-55.083-79.04-89.024-79.04
		c-5.891,0-10.667-4.776-10.667-10.667S239.442,0,245.333,0C288,0,327.595,33.408,353.835,91.733
		c2.415,5.373,0.018,11.686-5.355,14.101C347.099,106.422,345.607,106.705,344.107,106.667z"/>
	<path style="fill:#1976D2;" d="M117.333,128h-64c-5.891,0-10.667-4.776-10.667-10.667s4.776-10.667,10.667-10.667h64
		c5.891,0,10.667,4.776,10.667,10.667S123.224,128,117.333,128z"/>
	<path style="fill:#1976D2;" d="M437.333,128h-64c-5.891,0-10.667-4.776-10.667-10.667s4.776-10.667,10.667-10.667h64
		c5.891,0,10.667,4.776,10.667,10.667S443.224,128,437.333,128z"/>
	<path style="fill:#1976D2;" d="M245.333,85.333c-5.891,0-10.667-4.776-10.667-10.667v-64C234.667,4.776,239.442,0,245.333,0
		C251.224,0,256,4.776,256,10.667v64C256,80.558,251.224,85.333,245.333,85.333z"/>
	<path style="fill:#1976D2;" d="M245.333,490.667c-5.891,0-10.667-4.776-10.667-10.667c0-5.891,4.776-10.667,10.667-10.667
		c33.941,0,66.411-28.843,89.045-79.104c2.348-5.403,8.632-7.879,14.035-5.53c5.403,2.348,7.879,8.632,5.53,14.035
		c-0.035,0.081-0.072,0.162-0.109,0.242C327.595,457.259,288,490.667,245.333,490.667z"/>
	<path style="fill:#1976D2;" d="M245.333,490.667c-42.667,0-82.261-33.408-108.501-91.733c-2.482-5.342-0.164-11.686,5.179-14.168
		c5.342-2.482,11.686-0.164,14.168,5.179c0.037,0.081,0.074,0.161,0.109,0.243c22.635,50.304,55.104,79.147,89.045,79.147
		c5.891,0,10.667,4.776,10.667,10.667C256,485.891,251.224,490.667,245.333,490.667z"/>
	<path style="fill:#1976D2;" d="M437.333,384h-64c-5.891,0-10.667-4.776-10.667-10.667s4.776-10.667,10.667-10.667h64
		c5.891,0,10.667,4.776,10.667,10.667S443.224,384,437.333,384z"/>
	<path style="fill:#1976D2;" d="M117.333,384h-64c-5.891,0-10.667-4.776-10.667-10.667s4.776-10.667,10.667-10.667h64
		c5.891,0,10.667,4.776,10.667,10.667S123.224,384,117.333,384z"/>
	<path style="fill:#1976D2;" d="M245.333,490.667c-5.891,0-10.667-4.776-10.667-10.667v-64c0-5.891,4.776-10.667,10.667-10.667
		c5.891,0,10.667,4.776,10.667,10.667v64C256,485.891,251.224,490.667,245.333,490.667z"/>
	<path style="fill:#1976D2;" d="M74.667,256h-64C4.776,256,0,251.224,0,245.333c0-5.891,4.776-10.667,10.667-10.667h64
		c5.891,0,10.667,4.776,10.667,10.667C85.333,251.224,80.558,256,74.667,256z"/>
	<path style="fill:#1976D2;" d="M480,256h-64c-5.891,0-10.667-4.776-10.667-10.667c0-5.891,4.776-10.667,10.667-10.667h64
		c5.891,0,10.667,4.776,10.667,10.667C490.667,251.224,485.891,256,480,256z"/>
</g>
<circle style="fill:#455A64;" cx="245.333" cy="245.333" r="138.667"/>
<path style="fill:#FAFAFA;" d="M298.667,213.333c-0.05-15.174-8.179-29.172-21.333-36.736V160c0-5.891-4.776-10.667-10.667-10.667
	c-5.891,0-10.667,4.776-10.667,10.667v10.667h-21.333V160c0-5.891-4.776-10.667-10.667-10.667c-5.891,0-10.667,4.776-10.667,10.667
	v10.667h-10.667c-5.891,0-10.667,4.776-10.667,10.667v128c0,5.891,4.776,10.667,10.667,10.667h10.667v10.667
	c0,5.891,4.776,10.667,10.667,10.667c5.891,0,10.667-4.776,10.667-10.667V320H256v10.667c0,5.891,4.776,10.667,10.667,10.667
	c5.891,0,10.667-4.776,10.667-10.667v-16.597c20.331-11.655,27.363-37.585,15.708-57.916c-2.334-4.072-5.328-7.728-8.86-10.82
	C293.38,237.241,298.657,225.585,298.667,213.333z M256,298.667h-42.667V256H256c11.782,0,21.333,9.551,21.333,21.333
	S267.782,298.667,256,298.667z M256,234.667h-42.667V192H256c11.782,0,21.333,9.551,21.333,21.333
	C277.333,225.115,267.782,234.667,256,234.667z"/>
<g>
</g>
<g>
</g>
<g>
</g>
<g>
</g>
<g>
</g>
<g>
</g>
<g>
</g>
<g>
</g>
<g>
</g>
<g>
</g>
<g>
</g>
<g>
</g>
<g>
</g>
<g>
</g>
<g>
</g>
</svg>
